<?xml version="1.0" encoding="UTF-8" standalone="no"?>
<!-- Created with Inkscape (http://www.inkscape.org/) -->

<svg
   xmlns:dc="http://purl.org/dc/elements/1.1/"
   xmlns:cc="http://creativecommons.org/ns#"
   xmlns:rdf="http://www.w3.org/1999/02/22-rdf-syntax-ns#"
   xmlns:svg="http://www.w3.org/2000/svg"
   xmlns="http://www.w3.org/2000/svg"
   xmlns:sodipodi="http://sodipodi.sourceforge.net/DTD/sodipodi-0.dtd"
   xmlns:inkscape="http://www.inkscape.org/namespaces/inkscape"
   width="210mm"
   height="297mm"
   viewBox="0 0 210 297"
   version="1.1"
   id="svg8"
   inkscape:version="0.92.4 (5da689c313, 2019-01-14)"
   sodipodi:docname="orb_holder.svg">
  <defs
     id="defs2" />
  <sodipodi:namedview
     id="base"
     pagecolor="#ffffff"
     bordercolor="#666666"
     borderopacity="1.0"
     inkscape:pageopacity="0.0"
     inkscape:pageshadow="2"
     inkscape:zoom="0.80938212"
     inkscape:cx="40.569775"
     inkscape:cy="618.13054"
     inkscape:document-units="mm"
     inkscape:current-layer="layer1"
     showgrid="false"
     inkscape:snap-bbox="true"
     inkscape:snap-bbox-midpoints="true"
     inkscape:window-width="2560"
     inkscape:window-height="1387"
     inkscape:window-x="-8"
     inkscape:window-y="892"
     inkscape:window-maximized="1"
     inkscape:snap-smooth-nodes="true"
     inkscape:snap-midpoints="true"
     inkscape:object-nodes="false"
     showguides="true"
     inkscape:guide-bbox="true"
     inkscape:snap-center="true" />
  <metadata
     id="metadata5">
    <rdf:RDF>
      <cc:Work
         rdf:about="">
        <dc:format>image/svg+xml</dc:format>
        <dc:type
           rdf:resource="http://purl.org/dc/dcmitype/StillImage" />
        <dc:title></dc:title>
      </cc:Work>
    </rdf:RDF>
  </metadata>
  <g
     inkscape:label="Layer 1"
     inkscape:groupmode="layer"
     id="layer1">
    <g
       id="g928"
       transform="translate(270.99633,193.91713)">
      <path
         id="path898"
         d="m -141.83188,18.343799 a 54.874995,54.874995 0 0 1 -54.875,54.874994 54.874995,54.874995 0 0 1 -54.875,-54.874994 54.874995,54.874995 0 0 1 54.875,-54.874988 54.874995,54.874995 0 0 1 54.875,54.874988 z"
         style="opacity:1;vector-effect:none;fill:none;fill-opacity:1;fill-rule:evenodd;stroke:#ff0000;stroke-width:0.24999999;stroke-linecap:square;stroke-linejoin:miter;stroke-miterlimit:4;stroke-dasharray:none;stroke-dashoffset:0;stroke-opacity:1"
         inkscape:connector-curvature="0" />
      <path
         d="m -151.4297,-6.0938069 a 1.475,1.475 0 0 1 -2.01489,-0.5398855 1.475,1.475 0 0 1 0.53989,-2.0148889 1.475,1.475 0 0 1 2.01489,0.539886 1.475,1.475 0 0 1 -0.53989,2.0148884 z m -1.475,51.4299919 a 1.475,1.475 0 0 1 -0.53989,-2.014888 1.475,1.475 0 0 1 2.01489,-0.539886 1.475,1.475 0 0 1 0.53989,2.014889 1.475,1.475 0 0 1 -2.01489,0.539885 z m -45.27718,24.437609 a 1.475,1.475 0 0 1 1.475,-1.475003 1.475,1.475 0 0 1 1.475,1.475003 1.475,1.475 0 0 1 -1.475,1.475003 1.475,1.475 0 0 1 -1.475,-1.475003 z M -241.98406,42.78141 a 1.475,1.475 0 0 1 2.01489,0.539886 1.475,1.475 0 0 1 -0.53989,2.014889 1.475,1.475 0 0 1 -2.01489,-0.539885 1.475,1.475 0 0 1 0.53989,-2.01489 z m 1.475,-51.4299925 a 1.475,1.475 0 0 1 0.53989,2.0148875 1.475,1.475 0 0 1 -2.01489,0.5398875 1.475,1.475 0 0 1 -0.53989,-2.0148875 1.475,1.475 0 0 1 2.01489,-0.5398875 z m 45.27718,-24.4376095 a 1.475,1.475 0 0 1 -1.475,1.475 1.475,1.475 0 0 1 -1.475,-1.475 1.475,1.475 0 0 1 1.475,-1.475 1.475,1.475 0 0 1 1.475,1.475 z m 46.51,51.429993 a 47.984998,47.984998 0 0 1 -47.985,47.985002 47.984998,47.984998 0 0 1 -47.98501,-47.985002 47.984998,47.984998 0 0 1 47.98501,-47.984994 47.984998,47.984998 0 0 1 47.985,47.984994 z"
         style="opacity:1;vector-effect:none;fill:none;fill-opacity:1;fill-rule:evenodd;stroke:#ff00ff;stroke-width:0.25;stroke-linecap:square;stroke-linejoin:miter;stroke-miterlimit:4;stroke-dasharray:none;stroke-dashoffset:0;stroke-opacity:1"
         id="path919"
         inkscape:connector-curvature="0" />
    </g>
    <g
       id="g977"
       transform="translate(165.4091,186.00351)">
      <path
         id="path952"
         d="m -128.79453,-166.58241 a 69.875,69.875 0 0 0 -25.5764,95.451011 69.875,69.875 0 0 0 95.451207,25.5757 69.875,69.875 0 0 0 25.57595,-95.450761 69.875,69.875 0 0 0 -95.450757,-25.57595 z"
         style="opacity:1;vector-effect:none;fill:none;fill-opacity:1;fill-rule:evenodd;stroke:#ff0000;stroke-width:0.25;stroke-linecap:square;stroke-linejoin:miter;stroke-miterlimit:4;stroke-dasharray:none;stroke-dashoffset:0;stroke-opacity:1"
         inkscape:connector-curvature="0" />
      <path
         id="circle817"
         d="m -124.63907,-157.43467 1.68899,-0.97514 c 0.23988,-0.13849 0.54411,-0.057 0.68261,0.18291 l 4.78705,8.29141 a 49.874995,49.874995 0 0 1 47.254237,-0.0139 l 4.77904,-8.27753 c 0.1385,-0.23989 0.4432,-0.32169 0.6831,-0.18316 l 1.68844,0.97523 c 0.23988,0.13849 0.32167,0.4432 0.18315,0.6831 l -4.78278,8.28447 a 49.874995,49.874995 0 0 1 17.01111,17.46072 49.874995,49.874995 0 0 1 6.64574,23.46247 l 9.53609,1.7e-4 c 0.277,0 0.5,0.22317 0.5,0.50017 l 3.5e-4,1.94984 c 0,0.277 -0.22317,0.5 -0.50017,0.5 l -9.58377,-8e-5 a 49.874995,49.874995 0 0 1 -23.60259,40.935311 l 4.77619,8.27261 c 0.1385,0.23989 0.057,0.54412 -0.1829,0.68262 l -1.68899,0.97513 c -0.23989,0.1385 -0.54412,0.057 -0.68262,-0.1829 l -4.78704,-8.29141 a 49.874995,49.874995 0 0 1 -47.254247,0.0139 l -4.77903,8.27753 c -0.1385,0.23989 -0.4432,0.32168 -0.6831,0.18315 l -1.68889,-0.97496 c -0.23989,-0.1385 -0.32165,-0.44322 -0.18315,-0.68311 l 4.78323,-8.28473 a 49.874995,49.874995 0 0 1 -17.01112,-17.46072 49.874995,49.874995 0 0 1 -6.64618,-23.462221 l -9.53608,-1.6e-4 c -0.277,0 -0.50001,-0.22317 -0.50001,-0.50017 l 10e-5,-1.9501 c 0,-0.277 0.22317,-0.50001 0.50017,-0.50001 l 9.58377,8e-5 a 49.874995,49.874995 0 0 1 23.60259,-40.9353 l -4.77619,-8.27261 c -0.1385,-0.23989 -0.057,-0.54412 0.1829,-0.68262 z"
         style="opacity:1;vector-effect:none;fill:none;fill-opacity:1;fill-rule:evenodd;stroke:#0000ff;stroke-width:0.25;stroke-linecap:square;stroke-linejoin:miter;stroke-miterlimit:4;stroke-dasharray:none;stroke-dashoffset:0;stroke-opacity:1"
         inkscape:connector-curvature="0" />
    </g>
    <g
       id="g934"
       transform="translate(162.79394,170.96632)"
       style="stroke:#ff00ff;stroke-opacity:1" />
    <g
       id="g940"
       transform="rotate(-24.804776,332.72362,-492.10841)"
       style="stroke:#ff00ff;stroke-opacity:1" />
    <g
       id="g987"
       transform="translate(-4.0861931,-2.9420591)">
      <path
         style="opacity:1;vector-effect:none;fill:none;fill-opacity:1;fill-rule:evenodd;stroke:#ff00ff;stroke-width:0.25;stroke-linecap:square;stroke-linejoin:miter;stroke-miterlimit:4;stroke-dasharray:none;stroke-dashoffset:0;stroke-opacity:1"
         d="m 32.171292,61.101806 c -0.69295,0.0123 -0.65357,0.28038 -0.59532,1.86862 v 16.84341 h 9.37514 c 0.277,0 0.50023,0.22323 0.50023,0.50023 v 1.94975 c 0,0.277 -0.22323,0.50023 -0.50023,0.50023 h -9.37514 c 0,11.55592 5.189159,13.39104 7.759863,20.467484 0.665893,1.83302 1.085084,10.28494 1.085084,13.09636 h 5.470983 v -5.60017 c 0,-0.2216 0.17837,-0.39998 0.39997,-0.39998 h 1.82729 c 0.30573,0.0254 0.27284,-0.0165 0.27284,-0.29999 v -4.35347 c 0,-0.48338 0.0811,-0.60098 -0.44855,-0.55036 h -0.551855 c -0.2216,0 -0.39993,-0.17837 -0.39997,-0.39997 l -5.2e-4,-1.7508 c -4e-5,-0.2216 0.17838,-0.39998 0.39997,-0.39998 h 0.481065 c 0.40645,0 0.57131,0.0975 0.51935,-0.3607 l 5.1e-4,-3.584274 c 3e-5,-0.2216 0.17838,-0.39997 0.39998,-0.39997 h 1.94975 c 0.2216,0 0.4,0.17837 0.39998,0.39997 l -5.2e-4,3.560504 c 0,0.44332 0.0275,0.40434 0.48679,0.38447 h 0.513125 c 0.2216,0 0.39994,0.17838 0.39998,0.39998 l 5.1e-4,1.7508 c 5e-5,0.2216 -0.17837,0.39997 -0.39997,0.39997 h -0.513125 c -0.53922,0 -0.51615,0.0107 -0.48679,0.57413 v 4.38749 c -0.0256,0.28072 0.0281,0.2422 0.28579,0.2422 h 1.81434 c 0.2216,0 0.39997,0.17838 0.39997,0.39998 v 5.60017 h 10.23296 C 63.896202,113.6636 63.731473,105.09571 63.424985,103.23153 61.179648,89.574466 51.326192,94.901146 51.326192,82.764046 v -2.2841 c -4.80034,-4.1724 -11.17204,-12.65586 -13.4891,-18.07901 -0.41092,-0.72437 -0.55178,-1.4459 -1.61075,-1.25728 h -2.58899 c -0.68471,0 -1.15109,-0.0474 -1.46606,-0.0419 z"
         id="path981"
         inkscape:connector-curvature="0"
         sodipodi:nodetypes="cccsssscsccssccscsccssccsscccsccsscccssccsscccscc" />
      <path
         sodipodi:nodetypes="cccsssscsccssccscsccssccsscccsccsscccssccsscccscc"
         inkscape:connector-curvature="0"
         id="path983"
         d="m 72.89566,106.19364 c 0.69295,-0.0123 0.65357,-0.28038 0.59532,-1.86862 V 87.481609 h -9.375144 c -0.277,0 -0.50023,-0.22323 -0.50023,-0.50023 v -1.94975 c 0,-0.277 0.22323,-0.50023 0.50023,-0.50023 h 9.375144 c 0,-11.55592 -5.189163,-13.39104 -7.759867,-20.467484 -0.665893,-1.83302 -1.085084,-10.28494 -1.085084,-13.09636 h -5.470983 v 5.60017 c 0,0.2216 -0.17837,0.39998 -0.39997,0.39998 h -1.82729 c -0.30573,-0.0254 -0.27284,0.0165 -0.27284,0.29999 v 4.35347 c 0,0.48338 -0.0811,0.60098 0.44855,0.55036 h 0.551855 c 0.2216,0 0.39993,0.17837 0.39997,0.39997 l 5.2e-4,1.7508 c 4e-5,0.2216 -0.17838,0.39998 -0.39997,0.39998 h -0.481065 c -0.40645,0 -0.57131,-0.0975 -0.51935,0.3607 l -5.1e-4,3.584274 c -3e-5,0.2216 -0.17838,0.39997 -0.39998,0.39997 h -1.94975 c -0.2216,0 -0.4,-0.17837 -0.39998,-0.39997 l 5.2e-4,-3.560504 c 0,-0.44332 -0.0275,-0.40434 -0.48679,-0.38447 h -0.513125 c -0.2216,0 -0.39994,-0.17838 -0.39998,-0.39998 l -5.1e-4,-1.7508 c -5e-5,-0.2216 0.17837,-0.39997 0.39997,-0.39997 h 0.513125 c 0.53922,0 0.51615,-0.0107 0.48679,-0.57413 v -4.38749 c 0.0256,-0.28072 -0.0281,-0.2422 -0.28579,-0.2422 h -1.81434 c -0.2216,0 -0.39997,-0.17838 -0.39997,-0.39998 v -5.60017 h -10.23296 c -0.02143,2.66429 0.143299,11.23218 0.449787,13.09636 2.245337,13.657064 12.098793,8.330384 12.098793,20.467484 v 2.2841 c 4.80034,4.172402 11.17204,12.655862 13.4891,18.079011 0.41092,0.72437 0.55178,1.4459 1.610754,1.25728 h 2.58899 c 0.68471,0 1.15109,0.0474 1.46606,0.0419 z"
         style="opacity:1;vector-effect:none;fill:none;fill-opacity:1;fill-rule:evenodd;stroke:#ff00ff;stroke-width:0.25;stroke-linecap:square;stroke-linejoin:miter;stroke-miterlimit:4;stroke-dasharray:none;stroke-dashoffset:0;stroke-opacity:1" />
    </g>
    <g
       id="g993"
       transform="matrix(-1,0,0,1,144.78475,-2.6151638)">
      <path
         sodipodi:nodetypes="cccsssscsccssccscsccssccsscccsccsscccssccsscccscc"
         inkscape:connector-curvature="0"
         id="path989"
         d="m 32.171292,61.101806 c -0.69295,0.0123 -0.65357,0.28038 -0.59532,1.86862 v 16.84341 h 9.37514 c 0.277,0 0.50023,0.22323 0.50023,0.50023 v 1.94975 c 0,0.277 -0.22323,0.50023 -0.50023,0.50023 h -9.37514 c 0,11.55592 5.189159,13.39104 7.759863,20.467484 0.665893,1.83302 1.085084,10.28494 1.085084,13.09636 h 5.470983 v -5.60017 c 0,-0.2216 0.17837,-0.39998 0.39997,-0.39998 h 1.82729 c 0.30573,0.0254 0.27284,-0.0165 0.27284,-0.29999 v -4.35347 c 0,-0.48338 0.0811,-0.60098 -0.44855,-0.55036 h -0.551855 c -0.2216,0 -0.39993,-0.17837 -0.39997,-0.39997 l -5.2e-4,-1.7508 c -4e-5,-0.2216 0.17838,-0.39998 0.39997,-0.39998 h 0.481065 c 0.40645,0 0.57131,0.0975 0.51935,-0.3607 l 5.1e-4,-3.584274 c 3e-5,-0.2216 0.17838,-0.39997 0.39998,-0.39997 h 1.94975 c 0.2216,0 0.4,0.17837 0.39998,0.39997 l -5.2e-4,3.560504 c 0,0.44332 0.0275,0.40434 0.48679,0.38447 h 0.513125 c 0.2216,0 0.39994,0.17838 0.39998,0.39998 l 5.1e-4,1.7508 c 5e-5,0.2216 -0.17837,0.39997 -0.39997,0.39997 h -0.513125 c -0.53922,0 -0.51615,0.0107 -0.48679,0.57413 v 4.38749 c -0.0256,0.28072 0.0281,0.2422 0.28579,0.2422 h 1.81434 c 0.2216,0 0.39997,0.17838 0.39997,0.39998 v 5.60017 h 10.23296 C 63.896202,113.6636 63.731473,105.09571 63.424985,103.23153 61.179648,89.574466 51.326192,94.901146 51.326192,82.764046 v -2.2841 c -4.80034,-4.1724 -11.17204,-12.65586 -13.4891,-18.07901 -0.41092,-0.72437 -0.55178,-1.4459 -1.61075,-1.25728 h -2.58899 c -0.68471,0 -1.15109,-0.0474 -1.46606,-0.0419 z"
         style="opacity:1;vector-effect:none;fill:none;fill-opacity:1;fill-rule:evenodd;stroke:#ff00ff;stroke-width:0.25;stroke-linecap:square;stroke-linejoin:miter;stroke-miterlimit:4;stroke-dasharray:none;stroke-dashoffset:0;stroke-opacity:1" />
      <path
         style="opacity:1;vector-effect:none;fill:none;fill-opacity:1;fill-rule:evenodd;stroke:#ff00ff;stroke-width:0.25;stroke-linecap:square;stroke-linejoin:miter;stroke-miterlimit:4;stroke-dasharray:none;stroke-dashoffset:0;stroke-opacity:1"
         d="m 72.89566,106.19364 c 0.69295,-0.0123 0.65357,-0.28038 0.59532,-1.86862 V 87.481609 h -9.375144 c -0.277,0 -0.50023,-0.22323 -0.50023,-0.50023 v -1.94975 c 0,-0.277 0.22323,-0.50023 0.50023,-0.50023 h 9.375144 c 0,-11.55592 -5.189163,-13.39104 -7.759867,-20.467484 -0.665893,-1.83302 -1.085084,-10.28494 -1.085084,-13.09636 h -5.470983 v 5.60017 c 0,0.2216 -0.17837,0.39998 -0.39997,0.39998 h -1.82729 c -0.30573,-0.0254 -0.27284,0.0165 -0.27284,0.29999 v 4.35347 c 0,0.48338 -0.0811,0.60098 0.44855,0.55036 h 0.551855 c 0.2216,0 0.39993,0.17837 0.39997,0.39997 l 5.2e-4,1.7508 c 4e-5,0.2216 -0.17838,0.39998 -0.39997,0.39998 h -0.481065 c -0.40645,0 -0.57131,-0.0975 -0.51935,0.3607 l -5.1e-4,3.584274 c -3e-5,0.2216 -0.17838,0.39997 -0.39998,0.39997 h -1.94975 c -0.2216,0 -0.4,-0.17837 -0.39998,-0.39997 l 5.2e-4,-3.560504 c 0,-0.44332 -0.0275,-0.40434 -0.48679,-0.38447 h -0.513125 c -0.2216,0 -0.39994,-0.17838 -0.39998,-0.39998 l -5.1e-4,-1.7508 c -5e-5,-0.2216 0.17837,-0.39997 0.39997,-0.39997 h 0.513125 c 0.53922,0 0.51615,-0.0107 0.48679,-0.57413 v -4.38749 c 0.0256,-0.28072 -0.0281,-0.2422 -0.28579,-0.2422 h -1.81434 c -0.2216,0 -0.39997,-0.17838 -0.39997,-0.39998 v -5.60017 h -10.23296 c -0.02143,2.66429 0.143299,11.23218 0.449787,13.09636 2.245337,13.657064 12.098793,8.330384 12.098793,20.467484 v 2.2841 c 4.80034,4.172402 11.17204,12.655862 13.4891,18.079011 0.41092,0.72437 0.55178,1.4459 1.610754,1.25728 h 2.58899 c 0.68471,0 1.15109,0.0474 1.46606,0.0419 z"
         id="path991"
         inkscape:connector-curvature="0"
         sodipodi:nodetypes="cccsssscsccssccscsccssccsscccsccsscccssccsscccscc" />
    </g>
    <g
       id="g999"
       transform="translate(44.130886,66.523225)">
      <path
         sodipodi:nodetypes="cccsssscsccssccscsccssccsscccsccsscccssccsscccscc"
         inkscape:connector-curvature="0"
         id="path944"
         d="m 3.5679403,114.71266 c -0.69295,0.0123 -0.65357,0.28038 -0.59532,1.86862 v 16.84341 H 12.34776 c 0.277,0 0.50023,0.22323 0.50023,0.50023 v 1.94975 c 0,0.277 -0.22323,0.50023 -0.50023,0.50023 H 2.9726203 c 0,11.55592 5.1891586,13.39104 7.7598627,20.46748 0.665893,1.83302 1.085084,10.28494 1.085084,13.09636 h 5.470983 v -5.60017 c 0,-0.2216 0.17837,-0.39998 0.39997,-0.39998 h 1.82729 c 0.30573,0.0254 0.27284,-0.0165 0.27284,-0.29999 v -4.35347 c 0,-0.48338 0.0811,-0.60098 -0.44855,-0.55036 h -0.551855 c -0.2216,0 -0.39993,-0.17837 -0.39997,-0.39997 l -5.2e-4,-1.7508 c -4e-5,-0.2216 0.17838,-0.39998 0.39997,-0.39998 h 0.481065 c 0.40645,0 0.57131,0.0975 0.51935,-0.3607 l 5.1e-4,-3.58427 c 3e-5,-0.2216 0.17838,-0.39997 0.39998,-0.39997 h 1.94975 c 0.2216,0 0.4,0.17837 0.39998,0.39997 l -5.2e-4,3.5605 c 0,0.44332 0.0275,0.40434 0.48679,0.38447 h 0.513125 c 0.2216,0 0.39994,0.17838 0.39998,0.39998 l 5.1e-4,1.7508 c 5e-5,0.2216 -0.17837,0.39997 -0.39997,0.39997 H 23.02515 c -0.53922,0 -0.51615,0.0107 -0.48679,0.57413 v 4.38749 c -0.0256,0.28072 0.0281,0.2422 0.28579,0.2422 h 1.81434 c 0.2216,0 0.39997,0.17838 0.39997,0.39998 v 5.60017 H 35.27142 C 35.29285,167.27445 35.128121,158.70656 34.821633,156.84238 32.576296,143.18532 22.72284,148.512 22.72284,136.3749 v -2.2841 C 17.9225,129.9184 11.5508,121.43494 9.2337403,116.01179 c -0.41092,-0.72437 -0.55178,-1.4459 -1.61075,-1.25728 h -2.58899 c -0.68471,0 -1.15109,-0.0474 -1.46606,-0.0419 z"
         style="opacity:1;vector-effect:none;fill:none;fill-opacity:1;fill-rule:evenodd;stroke:#ff00ff;stroke-width:0.25;stroke-linecap:square;stroke-linejoin:miter;stroke-miterlimit:4;stroke-dasharray:none;stroke-dashoffset:0;stroke-opacity:1" />
      <path
         style="opacity:1;vector-effect:none;fill:none;fill-opacity:1;fill-rule:evenodd;stroke:#ff00ff;stroke-width:0.25;stroke-linecap:square;stroke-linejoin:miter;stroke-miterlimit:4;stroke-dasharray:none;stroke-dashoffset:0;stroke-opacity:1"
         d="m 44.946095,161.25498 c 0.69295,-0.0123 0.65357,-0.28038 0.59532,-1.86862 v -16.84341 h -9.37514 c -0.277,0 -0.50023,-0.22323 -0.50023,-0.50023 v -1.94975 c 0,-0.277 0.22323,-0.50023 0.50023,-0.50023 h 9.37514 c 0,-11.55592 -5.18916,-13.39104 -7.75986,-20.46748 -0.66589,-1.83302 -1.08508,-10.28494 -1.08508,-13.09636 h -5.47099 v 5.60017 c 0,0.2216 -0.17837,0.39998 -0.39997,0.39998 h -1.82729 c -0.30573,-0.0254 -0.27284,0.0165 -0.27284,0.29999 v 4.35347 c 0,0.48338 -0.0811,0.60098 0.44855,0.55036 h 0.55186 c 0.2216,0 0.39993,0.17837 0.39997,0.39997 l 5.2e-4,1.7508 c 4e-5,0.2216 -0.17838,0.39998 -0.39997,0.39998 h -0.48107 c -0.40645,0 -0.57131,-0.0975 -0.51935,0.3607 l -5.1e-4,3.58427 c -3e-5,0.2216 -0.17838,0.39997 -0.39998,0.39997 h -1.94975 c -0.2216,0 -0.4,-0.17837 -0.39998,-0.39997 l 5.2e-4,-3.5605 c 0,-0.44332 -0.0275,-0.40434 -0.48679,-0.38447 h -0.51312 c -0.2216,0 -0.39994,-0.17838 -0.39998,-0.39998 l -5.1e-4,-1.7508 c -5e-5,-0.2216 0.17837,-0.39997 0.39997,-0.39997 h 0.51312 c 0.53922,0 0.51615,-0.0107 0.48679,-0.57413 v -4.38749 c 0.0256,-0.28072 -0.0281,-0.2422 -0.28579,-0.2422 h -1.81434 c -0.2216,0 -0.39997,-0.17838 -0.39997,-0.39998 v -5.60017 h -10.23296 c -0.0214,2.66429 0.1433,11.23218 0.44979,13.09636 2.24534,13.65706 12.09879,8.33038 12.09879,20.46748 v 2.2841 c 4.80034,4.1724 11.17204,12.65586 13.4891,18.07901 0.41092,0.72437 0.55178,1.4459 1.61075,1.25728 h 2.58899 c 0.68471,0 1.15109,0.0474 1.46606,0.0419 z"
         id="path995"
         inkscape:connector-curvature="0"
         sodipodi:nodetypes="cccsssscsccssccscsccssccsscccsccsscccssccsscccscc" />
    </g>
  </g>
</svg>
